<?xml version="1.0" encoding="utf-8"?>
<!-- Generator: Adobe Illustrator 24.1.3, SVG Export Plug-In . SVG Version: 6.00 Build 0)  -->
<svg version="1.1" id="Layer_1" xmlns="http://www.w3.org/2000/svg" xmlns:xlink="http://www.w3.org/1999/xlink" x="0px" y="0px"
	 viewBox="0 0 722.4 70.6" style="enable-background:new 0 0 722.4 70.6;" xml:space="preserve">
<style type="text/css">
	.st0{fill:#FFFFFF;}
</style>
<polygon class="st0" points="0,0.6 0,0.6 0,70 67.2,70 67.2,63.1 6.5,63.1 6.5,35.5 67.2,35.5 67.2,28.8 6.5,28.8 6.5,7.2 67.2,7.2 
	67.2,0.6 "/>
<path class="st0" d="M143.3,70L143.3,70h-12.9c-3.8,0-7.4-0.8-11-1.9c-3.4-1.3-6.6-3.1-9.5-5.4c-4-3.3-7.2-7.1-9.7-12
	c-2.3-4.8-3.4-10-3.4-15.6V0.6h6.6v34.5c0,5.2,1.1,9.8,3.6,14.1c2.5,4.2,5.7,7.7,9.8,10.2c4,2.5,8.5,3.7,13.4,3.7h12.9
	c3.6,0,7.2-0.8,10.4-2.1c3.4-1.5,6.2-3.5,8.7-6c2.5-2.5,4.4-5.6,5.9-9.1c1.3-3.3,2.1-6.9,2.1-10.8V0.6h6.4v34.5
	c0,4.8-0.8,9.3-2.5,13.5c-1.9,4.2-4.2,7.9-7.4,11.2c-0.9,1-2.1,1.9-3.2,2.9c-2.8,2.3-6.1,4-9.5,5.4C150.7,69.3,147.1,70,143.3,70"/>
<path class="st0" d="M279.6,70L279.6,70h-8.9l-29.3-28.5H213V70h-6.6V0.6h50.9c3.6,0,7,0.8,10,2.5c3,1.7,5.3,4.2,7.2,7.5
	c1.7,3.1,2.6,6.6,2.6,10.2c0,2.9-0.6,5.6-1.5,8.1c-1.1,2.5-2.4,4.6-4.3,6.6c-3.2,3.7-10.2,5.4-20.8,5.4L279.6,70z M256.3,34.8
	L256.3,34.8c4.4,0,7.8-1.4,10.4-4c2.4-2.7,3.8-6,3.8-9.8c0-3.7-1.3-6.9-3.8-9.6c-2.6-2.7-6.1-4-10.4-4H213v27.6H256.3z"/>
<path class="st0" d="M349.6,70L349.6,70h-14.8c-6.3,0-11.9-1.7-17.1-4.8c-5.1-3.1-9.1-7.3-12.1-12.5c-3-5.2-4.5-11.2-4.5-17.5
	c0-4.8,1-9.3,2.6-13.5c1.7-4.2,4.2-7.9,7.2-11.2c3-3.1,6.6-5.6,10.8-7.3c4-1.7,8.3-2.5,13.1-2.5h14.8c6.2,0,11.7,1.3,16.9,4.4
	c5.1,3.1,9.3,7.3,12.3,12.5c3,5.2,4.5,11.2,4.5,17.5c0,4.8-0.9,9.3-2.6,13.5c-1.7,4.2-4.2,7.9-7.4,11.2c-3,3.1-6.6,5.6-10.6,7.3
	C358.5,69.1,354.2,70,349.6,70 M349.6,63.1L349.6,63.1c3.6,0,7.2-0.8,10.4-2.1c3.4-1.5,6.3-3.5,8.7-6c2.4-2.5,4.3-5.6,5.9-9.1
	c1.3-3.3,2.1-6.9,2.1-10.8c0-5.2-1.3-9.8-3.6-14.1c-2.4-4.2-5.9-7.5-9.8-10.2c-4.2-2.5-8.7-3.7-13.6-3.7h-14.8
	c-3.8,0-7.2,0.8-10.6,2.1c-3.2,1.5-6.1,3.5-8.5,6c-2.5,2.7-4.5,5.6-5.9,9.1c-1.3,3.3-2.1,6.9-2.1,10.8c0,5.2,1.1,9.8,3.6,14.1
	c2.5,4.2,5.7,7.7,9.9,10.2c4.2,2.5,8.7,3.7,13.6,3.7H349.6z"/>
<polygon class="st0" points="455.2,70 455.2,70 442.2,70 442.2,15.3 408.7,15.3 408.7,2.2 488.7,2.2 488.7,15.3 455.2,15.3 "/>
<polygon class="st0" points="530.2,70 530.2,70 517.3,70 517.3,2.2 530.2,2.2 "/>
<polygon class="st0" points="626.3,70 626.3,70 559.9,70 559.9,2.2 573,2.2 573,56.7 626.3,56.7 "/>
<polygon class="st0" points="722.3,70 722.3,70 655.7,70 655.7,2.2 722.3,2.2 722.3,15.3 668.7,15.3 668.7,26.9 722.3,26.9 
	722.3,40.2 668.7,40.2 668.7,56.7 722.3,56.7 "/>
</svg>
